<svg width="100" height="100" viewBox="0 0 100 100" fill="none" xmlns="http://www.w3.org/2000/svg">
<path d="M50 100C77.6142 100 100 77.6142 100 50C100 22.3858 77.6142 0 50 0C22.3858 0 0 22.3858 0 50C0 77.6142 22.3858 100 50 100Z" fill="#B00000" fill-opacity="0.15"/>
<path d="M43.2421 75.601C43.4618 75.6965 43.6987 75.7459 43.9383 75.7462C44.65 75.7445 45.2908 75.3139 45.5607 74.6554L46.9847 71.2142C48.7171 71.4509 50.4738 71.4484 52.2055 71.2068L53.6355 74.6512C53.8114 75.0842 54.1532 75.4289 54.5848 75.6084C55.0164 75.7878 55.5018 75.7872 55.9329 75.6066L61.8852 73.1387C62.3247 72.9582 62.6732 72.6085 62.8522 72.1683C63.0276 71.743 63.0232 71.2648 62.8401 70.8427L61.4162 67.3932C62.8097 66.3378 64.0523 65.0967 65.1092 63.7044L68.5384 65.1237C68.9706 65.3105 69.4598 65.3156 69.8958 65.1378C70.3317 64.96 70.6779 64.6143 70.8562 64.1785L73.3275 58.2187C73.5054 57.789 73.5066 57.3065 73.3307 56.876C73.1552 56.4408 72.811 56.0951 72.3766 55.9177L69.9353 54.9013L30.1578 54.5386L26.7918 55.926C25.909 56.3052 25.4975 57.3257 25.8704 58.2112L28.3316 64.1821C28.5108 64.6104 28.8524 64.9502 29.2815 65.1273C29.7109 65.3085 30.1952 65.3093 30.6252 65.1296L34.0775 63.7038C35.1363 65.0971 36.3791 66.3403 37.7719 67.3996L36.3565 70.8212C36.1665 71.2487 36.1588 71.735 36.3352 72.1682C36.5138 72.6072 36.861 72.9563 37.299 73.1371L43.2421 75.601Z" stroke="#B00000" stroke-width="3"/>
<path d="M69.0717 55.2471H69.0709H33.449C27.4573 55.2471 22.6001 50.3898 22.6001 44.3981C22.6001 38.4064 27.4573 33.5492 33.449 33.5492C33.5246 33.5492 33.5921 33.5497 33.6551 33.5511L34.6617 33.574L35.0642 32.6512C37.0909 28.0042 41.6788 25 46.7485 25C51.8183 25 56.4061 28.0042 58.4329 32.6512L58.816 33.5295L59.774 33.5511C63.4846 33.6348 66.802 35.885 68.2518 39.3017L68.6141 40.1557L69.54 40.213C73.5982 40.4638 76.723 43.8932 76.5964 47.9571C76.4698 52.021 73.1376 55.2493 69.0717 55.2471Z" stroke="#B00000" stroke-width="3"/>
<path d="M49.5962 65.5468H49.5982C55.5981 65.523 60.9701 61.824 63.1327 56.2274C63.2899 55.8261 63.2198 55.3713 62.949 55.0359C62.6781 54.7004 62.248 54.5361 61.8224 54.6055C61.3971 54.6748 61.0417 54.9668 60.8912 55.3705C59.1029 60.0534 54.6101 63.1471 49.5972 63.1471C44.5843 63.1471 40.0915 60.0534 38.3032 55.3704C38.1527 54.9668 37.7973 54.6748 37.372 54.6055C36.9464 54.5361 36.5163 54.7004 36.2454 55.0359C35.9746 55.3713 35.9045 55.8261 36.0617 56.2273C38.2243 61.824 43.5963 65.523 49.5962 65.5468Z" fill="#B00000" stroke="#B00000" stroke-width="0.5"/>
</svg>
