<svg width="30" height="30" viewBox="0 0 30 30" fill="none" xmlns="http://www.w3.org/2000/svg">
<path d="M14.56 29.12C22.6013 29.12 29.12 22.6013 29.12 14.56C29.12 6.51873 22.6013 0 14.56 0C6.51873 0 0 6.51873 0 14.56C0 22.6013 6.51873 29.12 14.56 29.12Z" fill="white"/>
<path d="M19.0783 9.05374C18.8794 9.05375 18.6849 9.11286 18.5196 9.22356C18.3543 9.33427 18.2256 9.49158 18.1499 9.67554C18.0741 9.8595 18.0547 10.0618 18.0941 10.2568C18.1335 10.4518 18.23 10.6307 18.3713 10.7708C18.5125 10.9109 18.6922 11.0059 18.8875 11.0437C19.0828 11.0815 19.285 11.0605 19.4683 10.9832C19.6517 10.9059 19.8079 10.776 19.9173 10.6097C20.0266 10.4435 20.0841 10.2486 20.0825 10.0497C20.0825 9.91817 20.0564 9.78799 20.0059 9.66662C19.9553 9.54526 19.8812 9.4351 19.7879 9.34251C19.6945 9.24993 19.5837 9.17674 19.462 9.12718C19.3402 9.07762 19.2098 9.05266 19.0783 9.05374Z" fill="#B00000"/>
<path d="M14.636 10.3379C13.8038 10.3363 12.9898 10.5816 12.2971 11.0427C11.6043 11.5039 11.064 12.1602 10.7444 12.9285C10.4248 13.6969 10.3403 14.5428 10.5017 15.3592C10.663 16.1756 11.063 16.9258 11.6508 17.5148C12.2387 18.1038 12.9881 18.5052 13.8042 18.6682C14.6203 18.8311 15.4663 18.7483 16.2353 18.4302C17.0043 18.1122 17.6617 17.5731 18.1242 16.8813C18.5867 16.1894 18.8336 15.3759 18.8336 14.5438C18.8336 13.4297 18.3916 12.3612 17.6046 11.5727C16.8177 10.7842 15.75 10.3401 14.636 10.3379ZM14.636 17.2352C14.1013 17.2368 13.5782 17.0796 13.133 16.7836C12.6878 16.4876 12.3405 16.0661 12.1352 15.5724C11.9298 15.0788 11.8757 14.5353 11.9796 14.0109C12.0835 13.4864 12.3408 13.0046 12.7188 12.6266C13.0969 12.2485 13.5786 11.9913 14.1031 11.8874C14.6275 11.7835 15.171 11.8376 15.6647 12.043C16.1583 12.2483 16.5798 12.5956 16.8758 13.0408C17.1719 13.486 17.329 14.0091 17.3274 14.5438C17.3252 15.2569 17.041 15.9402 16.5367 16.4445C16.0324 16.9487 15.3491 17.233 14.636 17.2352Z" fill="#B00000"/>
<path d="M17.9661 23.0457H11.1511C9.79185 23.0435 8.48886 22.5025 7.52771 21.5414C6.56655 20.5802 6.02561 19.2772 6.02344 17.918V11.1359C6.02344 9.77521 6.56341 8.47012 7.5248 7.50718C8.48619 6.54425 9.79042 6.00218 11.1511 6H17.9661C19.3268 6.00218 20.631 6.54425 21.5924 7.50718C22.5538 8.47012 23.0938 9.77521 23.0938 11.1359V17.9509C23.0829 19.3045 22.5382 20.599 21.578 21.5531C20.6177 22.5071 19.3197 23.0435 17.9661 23.0457ZM11.1511 7.61321C10.2168 7.61321 9.32083 7.98435 8.66019 8.64498C7.99955 9.30562 7.62841 10.2016 7.62841 11.1359V17.9509C7.62841 18.8852 7.99955 19.7812 8.66019 20.4418C9.32083 21.1025 10.2168 21.4736 11.1511 21.4736H17.9661C18.9004 21.4736 19.7964 21.1025 20.457 20.4418C21.1177 19.7812 21.4888 18.8852 21.4888 17.9509V11.1359C21.4888 10.2016 21.1177 9.30562 20.457 8.64498C19.7964 7.98435 18.9004 7.61321 17.9661 7.61321H11.1511Z" fill="#B00000"/>
</svg>
